<?xml version="1.0" standalone="no"?><svg xmlns:xlink="http://www.w3.org/1999/xlink" xmlns="http://www.w3.org/2000/svg" viewBox="0 0 1800 720" preserveAspectRatio="xMaxYMax slice"><g transform="scale(2.0055710306406684)"><rect x="0" y="0" width="897.5" height="359" fill="#ffffff"/><path d="M 0 179.5 A 89.75 89.75 0 0 1  89.75 89.75 L 0 179.5 A 89.75 89.75 0 0 0 89.75 89.75" fill="#baedd6"/><rect x="89.75" y="89.75" width="89.75" height="89.75" fill="#ffffff"/><path d="M 134.63 134.63 A 44.88 44.88 0 0 1  179.51 179.51 L 134.63 134.63 A 44.88 44.88 0 0 0 179.51 179.51" fill="#7a7e86"/><rect x="628.25" y="89.75" width="89.75" height="89.75" fill="#ffffff"/><path d="M 628.25 89.75 A 44.88 44.88 0 0 1  673.13 134.63 L 628.25 89.75 A 44.88 44.88 0 0 0 673.13 134.63" fill="#f7fdfa"/><rect x="89.75" y="179.5" width="89.75" height="89.75" fill="#ffffff"/><path d="M 89.75 224.38 A 44.88 44.88 0 0 1  134.63 179.5 L 89.75 224.38 A 44.88 44.88 0 0 0 134.63 179.5" fill="#9699a0"/><path d="M 134.63 224.38 A 44.88 44.88 0 0 1  179.51 179.5 L 134.63 224.38 A 44.88 44.88 0 0 0 179.51 179.5" fill="#7e828a"/><rect x="179.5" y="179.5" width="89.75" height="89.75" fill="#ffffff"/><path d="M 179.5 224.38 A 44.88 44.88 0 0 1  224.38 179.5 L 179.5 224.38 A 44.88 44.88 0 0 0 224.38 179.5" fill="#5b5f6a"/><path d="M 224.38 224.38 A 44.88 44.88 0 0 1  269.26 179.5 L 224.38 224.38 A 44.88 44.88 0 0 0 269.26 179.5" fill="#d2f3e4"/><path d="M 269.25 269.25 A 89.75 89.75 0 0 1  359 179.5 L 269.25 269.25 A 89.75 89.75 0 0 0 359 179.5" fill="#868991"/><path d="M 359 269.25 A 89.75 89.75 0 0 1  448.75 179.5 L 359 269.25 A 89.75 89.75 0 0 0 448.75 179.5" fill="#464b57"/><path d="M 538.5 269.25 A 89.75 89.75 0 0 1  628.25 179.5 L 538.5 269.25 A 89.75 89.75 0 0 0 628.25 179.5" fill="#80838b"/><rect x="807.75" y="179.5" width="89.75" height="89.75" fill="#ffffff"/><path d="M 807.75 179.5 A 44.88 44.88 0 0 1  852.63 224.38 L 807.75 179.5 A 44.88 44.88 0 0 0 852.63 224.38" fill="#fdfefe"/><path d="M 852.63 224.38 A 44.88 44.88 0 0 1  897.51 179.5 L 852.63 224.38 A 44.88 44.88 0 0 0 897.51 179.5" fill="#eaf9f2"/><path d="M 852.63 224.38 A 44.88 44.88 0 0 1  897.51 269.26 L 852.63 224.38 A 44.88 44.88 0 0 0 897.51 269.26" fill="#e3e4e6"/><rect x="0" y="269.25" width="89.75" height="89.75" fill="#ffffff"/><path d="M 0 269.25 A 44.88 44.88 0 0 1  44.88 314.13 L 0 269.25 A 44.88 44.88 0 0 0 44.88 314.13" fill="#3c424e"/><path d="M 44.88 314.13 A 44.88 44.88 0 0 1  89.76 269.25 L 44.88 314.13 A 44.88 44.88 0 0 0 89.76 269.25" fill="#e6f8f0"/><path d="M 0 359.01 A 44.88 44.88 0 0 1  44.88 314.13 L 0 359.01 A 44.88 44.88 0 0 0 44.88 314.13" fill="#454a56"/><path d="M 89.75 359 A 89.75 89.75 0 0 1  179.5 269.25 L 89.75 359 A 89.75 89.75 0 0 0 179.5 269.25" fill="#c5c7ca"/><rect x="179.5" y="269.25" width="89.75" height="89.75" fill="#ffffff"/><path d="M 179.5 269.25 A 44.88 44.88 0 0 1  224.38 314.13 L 179.5 269.25 A 44.88 44.88 0 0 0 224.38 314.13" fill="#b1b3b8"/><path d="M 224.38 314.13 A 44.88 44.88 0 0 1  269.26 269.25 L 224.38 314.13 A 44.88 44.88 0 0 0 269.26 269.25" fill="#535863"/><path d="M 179.5 359.01 A 44.88 44.88 0 0 1  224.38 314.13 L 179.5 359.01 A 44.88 44.88 0 0 0 224.38 314.13" fill="#fbfefd"/><rect x="269.25" y="269.25" width="89.75" height="89.75" fill="#ffffff"/><path d="M 269.25 314.13 A 44.88 44.88 0 0 1  314.13 269.25 L 269.25 314.13 A 44.88 44.88 0 0 0 314.13 269.25" fill="#aaadb2"/><path d="M 314.13 314.13 A 44.88 44.88 0 0 1  359.01 269.25 L 314.13 314.13 A 44.88 44.88 0 0 0 359.01 269.25" fill="#4b505c"/><path d="M 269.25 314.13 A 44.88 44.88 0 0 1  314.13 359.01 L 269.25 314.13 A 44.88 44.88 0 0 0 314.13 359.01" fill="#d4f4e5"/><path d="M 314.13 359.01 A 44.88 44.88 0 0 1  359.01 314.13 L 314.13 359.01 A 44.88 44.88 0 0 0 359.01 314.13" fill="#f4fcf8"/><rect x="359" y="269.25" width="89.75" height="89.75" fill="#ffffff"/><path d="M 359 269.25 A 44.88 44.88 0 0 1  403.88 314.13 L 359 269.25 A 44.88 44.88 0 0 0 403.88 314.13" fill="#aaadb2"/><path d="M 403.88 269.25 A 44.88 44.88 0 0 1  448.76 314.13 L 403.88 269.25 A 44.88 44.88 0 0 0 448.76 314.13" fill="#b7ecd3"/><path d="M 403.88 359.01 A 44.88 44.88 0 0 1  448.76 314.13 L 403.88 359.01 A 44.88 44.88 0 0 0 448.76 314.13" fill="#d9f5e8"/><path d="M 448.75 269.25 A 89.75 89.75 0 0 1  538.5 359 L 448.75 269.25 A 89.75 89.75 0 0 0 538.5 359" fill="#bbedd6"/><rect x="538.5" y="269.25" width="89.75" height="89.75" fill="#ffffff"/><path d="M 538.5 314.13 A 44.88 44.88 0 0 1  583.38 269.25 L 538.5 314.13 A 44.88 44.88 0 0 0 583.38 269.25" fill="#b7ecd4"/><path d="M 538.5 314.13 A 44.88 44.88 0 0 1  583.38 359.01 L 538.5 314.13 A 44.88 44.88 0 0 0 583.38 359.01" fill="#e1f7ed"/><path d="M 583.38 359.01 A 44.88 44.88 0 0 1  628.26 314.13 L 583.38 359.01 A 44.88 44.88 0 0 0 628.26 314.13" fill="#b7ecd4"/><rect x="628.25" y="269.25" width="89.75" height="89.75" fill="#ffffff"/><path d="M 628.25 314.13 A 44.88 44.88 0 0 1  673.13 269.25 L 628.25 314.13 A 44.88 44.88 0 0 0 673.13 269.25" fill="#2c323f"/><path d="M 673.13 314.13 A 44.88 44.88 0 0 1  718.01 269.25 L 673.13 314.13 A 44.88 44.88 0 0 0 718.01 269.25" fill="#bbedd6"/><path d="M 628.25 314.13 A 44.88 44.88 0 0 1  673.13 359.01 L 628.25 314.13 A 44.88 44.88 0 0 0 673.13 359.01" fill="#7f838b"/><path d="M 673.13 359.01 A 44.88 44.88 0 0 1  718.01 314.13 L 673.13 359.01 A 44.88 44.88 0 0 0 718.01 314.13" fill="#edfaf4"/></g></svg>