<?xml version="1.0" standalone="no"?>
<svg xmlns:xlink="http://www.w3.org/1999/xlink" id="wave" style="transform:rotate(0deg); transition: 0.3s" viewBox="0 0 1440 490" version="1.1" xmlns="http://www.w3.org/2000/svg"><defs><linearGradient id="sw-gradient-0" x1="0" x2="0" y1="1" y2="0"><stop stop-color="rgba(61.818, 186.566, 200.677, 1)" offset="0%"/><stop stop-color="rgba(156.523, 236.695, 253.043, 1)" offset="100%"/></linearGradient></defs><path style="transform:translate(0, 0px); opacity:1" fill="url(#sw-gradient-0)" d="M0,49L24,106.2C48,163,96,278,144,285.8C192,294,240,196,288,204.2C336,212,384,327,432,310.3C480,294,528,147,576,114.3C624,82,672,163,720,212.3C768,261,816,278,864,253.2C912,229,960,163,1008,138.8C1056,114,1104,131,1152,138.8C1200,147,1248,147,1296,187.8C1344,229,1392,310,1440,310.3C1488,310,1536,229,1584,212.3C1632,196,1680,245,1728,261.3C1776,278,1824,261,1872,269.5C1920,278,1968,310,2016,294C2064,278,2112,212,2160,155.2C2208,98,2256,49,2304,32.7C2352,16,2400,33,2448,98C2496,163,2544,278,2592,285.8C2640,294,2688,196,2736,130.7C2784,65,2832,33,2880,89.8C2928,147,2976,294,3024,302.2C3072,310,3120,180,3168,147C3216,114,3264,180,3312,212.3C3360,245,3408,245,3432,245L3456,245L3456,490L3432,490C3408,490,3360,490,3312,490C3264,490,3216,490,3168,490C3120,490,3072,490,3024,490C2976,490,2928,490,2880,490C2832,490,2784,490,2736,490C2688,490,2640,490,2592,490C2544,490,2496,490,2448,490C2400,490,2352,490,2304,490C2256,490,2208,490,2160,490C2112,490,2064,490,2016,490C1968,490,1920,490,1872,490C1824,490,1776,490,1728,490C1680,490,1632,490,1584,490C1536,490,1488,490,1440,490C1392,490,1344,490,1296,490C1248,490,1200,490,1152,490C1104,490,1056,490,1008,490C960,490,912,490,864,490C816,490,768,490,720,490C672,490,624,490,576,490C528,490,480,490,432,490C384,490,336,490,288,490C240,490,192,490,144,490C96,490,48,490,24,490L0,490Z"/><defs><linearGradient id="sw-gradient-1" x1="0" x2="0" y1="1" y2="0"><stop stop-color="rgba(12.309, 227.999, 198.773, 1)" offset="0%"/><stop stop-color="rgba(213.596, 237.106, 237.106, 1)" offset="100%"/></linearGradient></defs><path style="transform:translate(0, 50px); opacity:0.9" fill="url(#sw-gradient-1)" d="M0,0L24,16.3C48,33,96,65,144,114.3C192,163,240,229,288,261.3C336,294,384,294,432,245C480,196,528,98,576,89.8C624,82,672,163,720,171.5C768,180,816,114,864,89.8C912,65,960,82,1008,106.2C1056,131,1104,163,1152,212.3C1200,261,1248,327,1296,310.3C1344,294,1392,196,1440,138.8C1488,82,1536,65,1584,57.2C1632,49,1680,49,1728,57.2C1776,65,1824,82,1872,130.7C1920,180,1968,261,2016,269.5C2064,278,2112,212,2160,228.7C2208,245,2256,343,2304,326.7C2352,310,2400,180,2448,171.5C2496,163,2544,278,2592,277.7C2640,278,2688,163,2736,163.3C2784,163,2832,278,2880,285.8C2928,294,2976,196,3024,179.7C3072,163,3120,229,3168,261.3C3216,294,3264,294,3312,285.8C3360,278,3408,261,3432,253.2L3456,245L3456,490L3432,490C3408,490,3360,490,3312,490C3264,490,3216,490,3168,490C3120,490,3072,490,3024,490C2976,490,2928,490,2880,490C2832,490,2784,490,2736,490C2688,490,2640,490,2592,490C2544,490,2496,490,2448,490C2400,490,2352,490,2304,490C2256,490,2208,490,2160,490C2112,490,2064,490,2016,490C1968,490,1920,490,1872,490C1824,490,1776,490,1728,490C1680,490,1632,490,1584,490C1536,490,1488,490,1440,490C1392,490,1344,490,1296,490C1248,490,1200,490,1152,490C1104,490,1056,490,1008,490C960,490,912,490,864,490C816,490,768,490,720,490C672,490,624,490,576,490C528,490,480,490,432,490C384,490,336,490,288,490C240,490,192,490,144,490C96,490,48,490,24,490L0,490Z"/><defs><linearGradient id="sw-gradient-2" x1="0" x2="0" y1="1" y2="0"><stop stop-color="rgba(38.135, 131.732, 166.526, 1)" offset="0%"/><stop stop-color="rgba(26.578, 75.033, 132.374, 1)" offset="100%"/></linearGradient></defs><path style="transform:translate(0, 100px); opacity:0.8" fill="url(#sw-gradient-2)" d="M0,343L24,359.3C48,376,96,408,144,383.8C192,359,240,278,288,277.7C336,278,384,359,432,400.2C480,441,528,441,576,392C624,343,672,245,720,187.8C768,131,816,114,864,114.3C912,114,960,131,1008,187.8C1056,245,1104,343,1152,375.7C1200,408,1248,376,1296,343C1344,310,1392,278,1440,228.7C1488,180,1536,114,1584,81.7C1632,49,1680,49,1728,73.5C1776,98,1824,147,1872,163.3C1920,180,1968,163,2016,138.8C2064,114,2112,82,2160,73.5C2208,65,2256,82,2304,138.8C2352,196,2400,294,2448,310.3C2496,327,2544,261,2592,204.2C2640,147,2688,98,2736,106.2C2784,114,2832,180,2880,179.7C2928,180,2976,114,3024,89.8C3072,65,3120,82,3168,147C3216,212,3264,327,3312,318.5C3360,310,3408,180,3432,114.3L3456,49L3456,490L3432,490C3408,490,3360,490,3312,490C3264,490,3216,490,3168,490C3120,490,3072,490,3024,490C2976,490,2928,490,2880,490C2832,490,2784,490,2736,490C2688,490,2640,490,2592,490C2544,490,2496,490,2448,490C2400,490,2352,490,2304,490C2256,490,2208,490,2160,490C2112,490,2064,490,2016,490C1968,490,1920,490,1872,490C1824,490,1776,490,1728,490C1680,490,1632,490,1584,490C1536,490,1488,490,1440,490C1392,490,1344,490,1296,490C1248,490,1200,490,1152,490C1104,490,1056,490,1008,490C960,490,912,490,864,490C816,490,768,490,720,490C672,490,624,490,576,490C528,490,480,490,432,490C384,490,336,490,288,490C240,490,192,490,144,490C96,490,48,490,24,490L0,490Z"/></svg>